<svg xmlns="http://www.w3.org/2000/svg" viewBox="0 0 900 900" width="900" height="900" preserveAspectRatio="xMidYMid slice">
  <defs>
    <radialGradient id="g40" cx="70%" cy="10%" r="120%">
      <stop offset="0%" stop-color="#c2a85e" stop-opacity="0.55"/>
      <stop offset="35%" stop-color="#5a4d2e" stop-opacity="1"/>
      <stop offset="100%" stop-color="#1f1c14" stop-opacity="1"/>
    </radialGradient>
    <linearGradient id="v40" x1="0" y1="0" x2="0" y2="1">
      <stop offset="0%" stop-color="#000000" stop-opacity="0"/>
      <stop offset="100%" stop-color="#000000" stop-opacity="0.4"/>
    </linearGradient>
    <filter id="n40">
      <feTurbulence type="fractalNoise" baseFrequency="0.85" numOctaves="2" stitchTiles="stitch" result="noise"/>
      <feColorMatrix in="noise" type="matrix" values="0 0 0 0 0  0 0 0 0 0  0 0 0 0 0  0 0 0 0.05 0"/>
    </filter>
  </defs>
  <rect width="900" height="900" fill="url(#g40)"/>
  <rect width="900" height="900" fill="url(#v40)"/>
  <path d="M450.0,414.0 L594.0,414.0 A144.0,144.0 0 0 1 564.7,501.1 Z" fill="none" stroke="#c2a85e" stroke-width="1" opacity="0.15"/><path d="M450.0,414.0 L522.0,538.7 A144.0,144.0 0 0 1 432.0,556.9 Z" fill="none" stroke="#c2a85e" stroke-width="1" opacity="0.15"/><path d="M450.0,414.0 L378.0,538.7 A144.0,144.0 0 0 1 317.3,469.8 Z" fill="none" stroke="#c2a85e" stroke-width="1" opacity="0.15"/><path d="M450.0,414.0 L306.0,414.0 A144.0,144.0 0 0 1 335.3,326.9 Z" fill="none" stroke="#c2a85e" stroke-width="1" opacity="0.15"/><path d="M450.0,414.0 L378.0,289.3 A144.0,144.0 0 0 1 468.0,271.1 Z" fill="none" stroke="#c2a85e" stroke-width="1" opacity="0.15"/><path d="M450.0,414.0 L522.0,289.3 A144.0,144.0 0 0 1 582.7,358.2 Z" fill="none" stroke="#c2a85e" stroke-width="1" opacity="0.15"/><circle cx="450.0" cy="414.0" r="60.5" fill="none" stroke="#c2a85e" stroke-width="1" opacity="0.15"/>
  <rect width="900" height="900" filter="url(#n40)"/>
</svg>