<svg xmlns="http://www.w3.org/2000/svg" viewBox="0 0 900 1150" width="900" height="1150" preserveAspectRatio="xMidYMid slice">
  <defs>
    <radialGradient id="g125" cx="55%" cy="65%" r="130%">
      <stop offset="0%" stop-color="#c9a869" stop-opacity="0.5"/>
      <stop offset="38%" stop-color="#8a6a45" stop-opacity="1"/>
      <stop offset="100%" stop-color="#2c1f16" stop-opacity="1"/>
    </radialGradient>
    <filter id="n125">
      <feTurbulence type="fractalNoise" baseFrequency="0.85" numOctaves="2" stitchTiles="stitch" result="noise"/>
      <feColorMatrix in="noise" type="matrix" values="0 0 0 0 0  0 0 0 0 0  0 0 0 0 0  0 0 0 0.045 0"/>
    </filter>
  </defs>
  <rect width="900" height="1150" fill="url(#g125)"/>
  <path d="M452.8,364.7 L587.8,364.7 A135.0,135.0 0 0 1 560.3,446.4 Z" fill="none" stroke="#c9a869" stroke-width="1" opacity="0.14"/><path d="M452.8,364.7 L520.3,481.7 A135.0,135.0 0 0 1 435.9,498.7 Z" fill="none" stroke="#c9a869" stroke-width="1" opacity="0.14"/><path d="M452.8,364.7 L385.3,481.7 A135.0,135.0 0 0 1 328.3,417.1 Z" fill="none" stroke="#c9a869" stroke-width="1" opacity="0.14"/><path d="M452.8,364.7 L317.8,364.7 A135.0,135.0 0 0 1 345.3,283.1 Z" fill="none" stroke="#c9a869" stroke-width="1" opacity="0.14"/><path d="M452.8,364.7 L385.3,247.8 A135.0,135.0 0 0 1 469.7,230.8 Z" fill="none" stroke="#c9a869" stroke-width="1" opacity="0.14"/><path d="M452.8,364.7 L520.3,247.8 A135.0,135.0 0 0 1 577.2,312.4 Z" fill="none" stroke="#c9a869" stroke-width="1" opacity="0.14"/><circle cx="452.79024692786356" cy="364.7493520350852" r="56.7" fill="none" stroke="#c9a869" stroke-width="1" opacity="0.14"/>
  <rect width="900" height="1150" filter="url(#n125)"/>
</svg>